{
	"asset":{
		"generator":"Khronos glTF Blender I/O v4.2.69",
		"version":"2.0"
	},
	"scene":0,
	"scenes":[
		{
			"name":"Scene",
			"nodes":[
				0
			]
		}
	],
	"nodes":[
		{
			"mesh":0,
			"name":"Text",
			"rotation":[
				0.6946583986282349,
				0,
				0,
				0.7193397879600525
			],
			"translation":[
				-6.134083271026611,
				0.2556097209453583,
				-0.18115614354610443
			]
		}
	],
	"meshes":[
		{
			"name":"Text",
			"primitives":[
				{
					"attributes":{
						"POSITION":0,
						"NORMAL":1,
						"TEXCOORD_0":2
					},
					"indices":3
				}
			]
		}
	],
	"accessors":[
		{
			"bufferView":0,
			"componentType":5126,
			"count":6317,
			"max":[
				12.006999015808105,
				0.10999998450279236,
				0.09909932315349579
			],
			"min":[
				-0.042182229459285736,
				-0.10999998450279236,
				-0.7810538411140442
			],
			"type":"VEC3"
		},
		{
			"bufferView":1,
			"componentType":5126,
			"count":6317,
			"type":"VEC3"
		},
		{
			"bufferView":2,
			"componentType":5126,
			"count":6317,
			"type":"VEC2"
		},
		{
			"bufferView":3,
			"componentType":5123,
			"count":32628,
			"type":"SCALAR"
		}
	],
	"bufferViews":[
		{
			"buffer":0,
			"byteLength":75804,
			"byteOffset":0,
			"target":34962
		},
		{
			"buffer":0,
			"byteLength":75804,
			"byteOffset":75804,
			"target":34962
		},
		{
			"buffer":0,
			"byteLength":50536,
			"byteOffset":151608,
			"target":34962
		},
		{
			"buffer":0,
			"byteLength":65256,
			"byteOffset":202144,
			"target":34963
		}
	],
	"buffers":[
		{
			"byteLength":267400,
			"uri":"CheckVaultText.bin"
		}
	]
}
