{
	"asset":{
		"generator":"Khronos glTF Blender I/O v4.2.69",
		"version":"2.0"
	},
	"scene":0,
	"scenes":[
		{
			"name":"Scene",
			"nodes":[
				0
			]
		}
	],
	"nodes":[
		{
			"mesh":0,
			"name":"Text",
			"rotation":[
				0.7009092569351196,
				0,
				0,
				0.7132505178451538
			],
			"scale":[
				0.8669212460517883,
				0.8669213056564331,
				0.8669213056564331
			],
			"translation":[
				-2.3052682876586914,
				0.0832330733537674,
				-0.07532677799463272
			]
		}
	],
	"meshes":[
		{
			"name":"Text",
			"primitives":[
				{
					"attributes":{
						"POSITION":0,
						"NORMAL":1,
						"TEXCOORD_0":2
					},
					"indices":3
				}
			]
		}
	],
	"accessors":[
		{
			"bufferView":0,
			"componentType":5126,
			"count":4690,
			"max":[
				5.585999965667725,
				0.07999999821186066,
				0.0490749292075634
			],
			"min":[
				0.0360000878572464,
				-0.07999999821186066,
				-0.7310729622840881
			],
			"type":"VEC3"
		},
		{
			"bufferView":1,
			"componentType":5126,
			"count":4690,
			"type":"VEC3"
		},
		{
			"bufferView":2,
			"componentType":5126,
			"count":4690,
			"type":"VEC2"
		},
		{
			"bufferView":3,
			"componentType":5123,
			"count":23184,
			"type":"SCALAR"
		}
	],
	"bufferViews":[
		{
			"buffer":0,
			"byteLength":56280,
			"byteOffset":0,
			"target":34962
		},
		{
			"buffer":0,
			"byteLength":56280,
			"byteOffset":56280,
			"target":34962
		},
		{
			"buffer":0,
			"byteLength":37520,
			"byteOffset":112560,
			"target":34962
		},
		{
			"buffer":0,
			"byteLength":46368,
			"byteOffset":150080,
			"target":34963
		}
	],
	"buffers":[
		{
			"byteLength":196448,
			"uri":"depositText.bin"
		}
	]
}
