{
	"asset":{
		"generator":"Khronos glTF Blender I/O v4.2.69",
		"version":"2.0"
	},
	"scene":0,
	"scenes":[
		{
			"name":"Scene",
			"nodes":[
				0
			]
		}
	],
	"nodes":[
		{
			"mesh":0,
			"name":"Text",
			"rotation":[
				0.6946583986282349,
				0,
				0,
				0.7193397879600525
			],
			"translation":[
				-1.5614135265350342,
				0.12529712915420532,
				-0.3804403841495514
			]
		}
	],
	"meshes":[
		{
			"name":"Text",
			"primitives":[
				{
					"attributes":{
						"POSITION":0,
						"NORMAL":1,
						"TEXCOORD_0":2
					},
					"indices":3
				}
			]
		}
	],
	"accessors":[
		{
			"bufferView":0,
			"componentType":5126,
			"count":4650,
			"max":[
				3.3131392002105713,
				0.10999998450279236,
				0.09904078394174576
			],
			"min":[
				-0.020000003278255463,
				-0.10999998450279236,
				-0.7720000743865967
			],
			"type":"VEC3"
		},
		{
			"bufferView":1,
			"componentType":5126,
			"count":4650,
			"type":"VEC3"
		},
		{
			"bufferView":2,
			"componentType":5126,
			"count":4650,
			"type":"VEC2"
		},
		{
			"bufferView":3,
			"componentType":5123,
			"count":24264,
			"type":"SCALAR"
		}
	],
	"bufferViews":[
		{
			"buffer":0,
			"byteLength":55800,
			"byteOffset":0,
			"target":34962
		},
		{
			"buffer":0,
			"byteLength":55800,
			"byteOffset":55800,
			"target":34962
		},
		{
			"buffer":0,
			"byteLength":37200,
			"byteOffset":111600,
			"target":34962
		},
		{
			"buffer":0,
			"byteLength":48528,
			"byteOffset":148800,
			"target":34963
		}
	],
	"buffers":[
		{
			"byteLength":197328,
			"uri":"pvp.bin"
		}
	]
}
