{
	"asset":{
		"generator":"Khronos glTF Blender I/O v4.2.69",
		"version":"2.0"
	},
	"scene":0,
	"scenes":[
		{
			"name":"Scene",
			"nodes":[
				0
			]
		}
	],
	"nodes":[
		{
			"mesh":0,
			"name":"Text",
			"rotation":[
				0.7071068286895752,
				0,
				0,
				0.7071068286895752
			],
			"scale":[
				0.8874228596687317,
				0.8874228000640869,
				0.8874228000640869
			],
			"translation":[
				-6.14506721496582,
				0.1409885287284851,
				-0.0075418949127197266
			]
		}
	],
	"meshes":[
		{
			"name":"Text",
			"primitives":[
				{
					"attributes":{
						"POSITION":0,
						"NORMAL":1,
						"TEXCOORD_0":2
					},
					"indices":3
				}
			]
		}
	],
	"accessors":[
		{
			"bufferView":0,
			"componentType":5126,
			"count":8515,
			"max":[
				13.509073257446289,
				0.07000000774860382,
				0.029037505388259888
			],
			"min":[
				-0.00299999862909317,
				-0.07000000774860382,
				-0.7110365629196167
			],
			"type":"VEC3"
		},
		{
			"bufferView":1,
			"componentType":5126,
			"count":8515,
			"type":"VEC3"
		},
		{
			"bufferView":2,
			"componentType":5126,
			"count":8515,
			"type":"VEC2"
		},
		{
			"bufferView":3,
			"componentType":5123,
			"count":42672,
			"type":"SCALAR"
		}
	],
	"bufferViews":[
		{
			"buffer":0,
			"byteLength":102180,
			"byteOffset":0,
			"target":34962
		},
		{
			"buffer":0,
			"byteLength":102180,
			"byteOffset":102180,
			"target":34962
		},
		{
			"buffer":0,
			"byteLength":68120,
			"byteOffset":204360,
			"target":34962
		},
		{
			"buffer":0,
			"byteLength":85344,
			"byteOffset":272480,
			"target":34963
		}
	],
	"buffers":[
		{
			"byteLength":357824,
			"uri":"transactionText.bin"
		}
	]
}
