{
	"asset":{
		"generator":"Khronos glTF Blender I/O v4.2.69",
		"version":"2.0"
	},
	"scene":0,
	"scenes":[
		{
			"name":"Scene",
			"nodes":[
				0
			]
		}
	],
	"nodes":[
		{
			"mesh":0,
			"name":"Text",
			"rotation":[
				0.6946583986282349,
				0,
				0,
				0.7193397879600525
			],
			"translation":[
				-2.094909429550171,
				0.1252969205379486,
				-0.3393051028251648
			]
		}
	],
	"meshes":[
		{
			"name":"Text",
			"primitives":[
				{
					"attributes":{
						"POSITION":0,
						"NORMAL":1,
						"TEXCOORD_0":2
					},
					"indices":3
				}
			]
		}
	],
	"accessors":[
		{
			"bufferView":0,
			"componentType":5126,
			"count":2080,
			"max":[
				4.258000373840332,
				0.10999998450279236,
				0.09909932315349579
			],
			"min":[
				-0.1365145593881607,
				-0.10999998450279236,
				-0.7760000228881836
			],
			"type":"VEC3"
		},
		{
			"bufferView":1,
			"componentType":5126,
			"count":2080,
			"type":"VEC3"
		},
		{
			"bufferView":2,
			"componentType":5126,
			"count":2080,
			"type":"VEC2"
		},
		{
			"bufferView":3,
			"componentType":5123,
			"count":10512,
			"type":"SCALAR"
		}
	],
	"bufferViews":[
		{
			"buffer":0,
			"byteLength":24960,
			"byteOffset":0,
			"target":34962
		},
		{
			"buffer":0,
			"byteLength":24960,
			"byteOffset":24960,
			"target":34962
		},
		{
			"buffer":0,
			"byteLength":16640,
			"byteOffset":49920,
			"target":34962
		},
		{
			"buffer":0,
			"byteLength":21024,
			"byteOffset":66560,
			"target":34963
		}
	],
	"buffers":[
		{
			"byteLength":87584,
			"uri":"vault.bin"
		}
	]
}
