{
	"asset":{
		"generator":"Khronos glTF Blender I/O v4.2.69",
		"version":"2.0"
	},
	"scene":0,
	"scenes":[
		{
			"name":"Scene",
			"nodes":[
				0
			]
		}
	],
	"nodes":[
		{
			"mesh":0,
			"name":"Text",
			"rotation":[
				0.7071068286895752,
				0,
				0,
				0.7071068286895752
			],
			"scale":[
				0.8874228596687317,
				0.8874228000640869,
				0.8874228000640869
			],
			"translation":[
				-4.053793907165527,
				0.15705212950706482,
				-0.13790473341941833
			]
		}
	],
	"meshes":[
		{
			"name":"Text",
			"primitives":[
				{
					"attributes":{
						"POSITION":0,
						"NORMAL":1,
						"TEXCOORD_0":2
					},
					"indices":3
				}
			]
		}
	],
	"accessors":[
		{
			"bufferView":0,
			"componentType":5126,
			"count":3062,
			"max":[
				9.608613014221191,
				0.07000000774860382,
				0.026000000536441803
			],
			"min":[
				-0.029572565108537674,
				-0.07000000774860382,
				-0.706000030040741
			],
			"type":"VEC3"
		},
		{
			"bufferView":1,
			"componentType":5126,
			"count":3062,
			"type":"VEC3"
		},
		{
			"bufferView":2,
			"componentType":5126,
			"count":3062,
			"type":"VEC2"
		},
		{
			"bufferView":3,
			"componentType":5123,
			"count":14988,
			"type":"SCALAR"
		}
	],
	"bufferViews":[
		{
			"buffer":0,
			"byteLength":36744,
			"byteOffset":0,
			"target":34962
		},
		{
			"buffer":0,
			"byteLength":36744,
			"byteOffset":36744,
			"target":34962
		},
		{
			"buffer":0,
			"byteLength":24496,
			"byteOffset":73488,
			"target":34962
		},
		{
			"buffer":0,
			"byteLength":29976,
			"byteOffset":97984,
			"target":34963
		}
	],
	"buffers":[
		{
			"byteLength":127960,
			"uri":"withdrawText.bin"
		}
	]
}
